# xmcd
#
# Track frame offsets: 
#        150
#        9171
#        19983
#        30022
#        41066
#        50106
#        61688
#        72795
#        84802
#        92499
#        103047
#        113564
#        125481
#        138839
#        150651
#        162341
#        171789
#        184631
#        196171
#        212115
#        220896
#        233273
#        242384
#        256788
#        269267
#        282349
#        294508
#        308190
#        321545
#        331992
#        345346
#        354535
#        366755
#
# Disc length: 5074 seconds
#
# Revision: 1
# Processed by: cddbd v1.5.2PL0 Copyright (c) Steve Scherf et al.
# Submitted via: ExactAudioCopy v0.99pb5
#
DISCID=c513d021
DTITLE=Various Artist - Country Boy's Dream
DYEAR=2008
DGENRE=Country
TTITLE0=Marvin Rainwater - Indian momma
TTITLE1=Bobby Barnett - Tombstone, Arizona
TTITLE2=Robert Fuller - Am Fuﬂ der blauen Berge
TTITLE3=Dickson Hall - Johnny Ringo
TTITLE4=Fess Parker - Daniel Boone
TTITLE5=Jenks Tex Carman - The Caissons go rolling along
TTITLE6=Ray Campi - Curtain Of Tears
TTITLE7=Leon Chappel - Automatic mama
TTITLE8=Dick Curless - I'm ragged but I'm right
TTITLE9=Jimmy Lee and Johnny Mathis - If you don't somebody else will
TTITLE10=Big Bill Lister - RC cola and moon pie
TTITLE11=Rod Morris - Alabama jail house
TTITLE12=Wilma Lee and Stoney Cooper - Sunny side of the mountain
TTITLE13=Jimmy Swan - Honky tonkin' (in Mississippi)
TTITLE14=Hal Lone Pine - I heard the bluebirds sing
TTITLE15=Vernon Oxford - Field of flowers
TTITLE16=Carl Perkins - Country boy's dream
TTITLE17=Leroy Pullins - I love you drops
TTITLE18=Jim Silvers - Each season changes you
TTITLE19=Anita Carter - (Love's) ring of fire
TTITLE20=Charles Lee Guy III - There goes a lonely man
TTITLE21=Cousin Emmy - Chilly scenes of winter
TTITLE22=Goebel Reeves - Hobo's lullaby
TTITLE23=Molly O'Day - The tramp on the street
TTITLE24=Bailes Brothers - Dust on the bible
TTITLE25=Carl Butler - I'll go steppin' too
TTITLE26=Lonesome Pine Fiddlers - Lonesome, sad and blue
TTITLE27=Leon McAuliffe - Take it away, Leon
TTITLE28=Country All Stars - What's the reason (I'm not pleasin' you)
TTITLE29=Eddie Hill - The hot guitar
TTITLE30=Bud Isaacs - Bud's steel guitar stomp
TTITLE31=Hank Garland - Sugarfoot rag
TTITLE32=Roy Lanham - Summit ridge drive
EXTD=
EXTT0=
EXTT1=
EXTT2=
EXTT3=
EXTT4=
EXTT5=
EXTT6=
EXTT7=
EXTT8=
EXTT9=
EXTT10=
EXTT11=
EXTT12=
EXTT13=
EXTT14=
EXTT15=
EXTT16=
EXTT17=
EXTT18=
EXTT19=
EXTT20=
EXTT21=
EXTT22=
EXTT23=
EXTT24=
EXTT25=
EXTT26=
EXTT27=
EXTT28=
EXTT29=
EXTT30=
EXTT31=
EXTT32=
PLAYORDER=
